<?xml version="1.0" encoding="UTF-8"?>
<svg xmlns="http://www.w3.org/2000/svg" viewBox="0 0 800 454">
  <defs>
    <style>
      .cls-1 {
        font-size: 120px;
      }

      .cls-1, .cls-2, .cls-3 {
        fill: #e5ac3b;
      }

      .cls-1, .cls-3 {
        font-family: Poppins-Bold, Poppins;
        font-weight: 700;
      }

      .cls-4 {
        fill: #435d67;
        stroke-width: 0px;
      }

      .cls-2 {
        font-family: Poppins-Black, Poppins;
        font-size: 150px;
        font-weight: 800;
      }

      .cls-3 {
        font-size: 130px;
      }
    </style>
  </defs>
  <g id="title-ar">
    <text class="cls-1" transform="translate(321.12 381.82) rotate(3.64)"><tspan x="0" y="0">AR </tspan></text>
  </g>
  <g id="title-kickers">
    <text class="cls-2" transform="translate(101.44 270.73) rotate(2.62)"><tspan x="0" y="0">KICKERS</tspan></text>
  </g>
  <g id="title-car">
    <text class="cls-3" transform="translate(302.79 152.57) rotate(1.82)"><tspan x="0" y="0">CAR </tspan></text>
  </g>
  <g id="icon-car">
    <path class="cls-4" d="m655.15,338.58c-11.08-9.91-42.25,6.08-68.09,34.95-25.83,28.87-38.27,61.63-27.19,71.54,11.08,9.91,42.23-6.1,68.06-34.97,25.83-28.87,38.29-61.61,27.22-71.52Zm-79.05,93.45c-2.58-2.31-4.88-7.35-1.09-18.06.58-1.64,1.25-3.25,2-4.81.02-.09.05-.17.1-.25,4.95-10.09,11.31-19.42,18.9-27.7,7.4-8.47,15.97-15.84,25.46-21.88.07-.03.13-.1.22-.15,1.55-.92,3.07-1.77,4.52-2.48,10.29-4.98,15.54-3.22,18.12-.92,9.23,8.26-3.35,32.37-19.89,50.85s-39.1,33.66-48.33,25.4Z"/>
    <path class="cls-4" d="m541.8,411.3l-5.47-8.98c-1.31,6.36-.75,12.96,1.62,19,1.14,2.44,2.56,4.74,4.23,6.85-1.27-5.54-1.39-11.28-.37-16.87Z"/>
    <path class="cls-4" d="m543.29,404.59c1.07-3.76,2.42-7.45,4.02-11.02l-5.29-8.95c-1.67,3.57-3.06,7.27-4.18,11.05l5.44,8.92Z"/>
    <path class="cls-4" d="m550.27,369.88c-2.14,3.24-4.05,6.48-5.74,9.65l5.26,8.88c1.58-3.1,3.39-6.26,5.39-9.41l-4.91-9.13Z"/>
    <path class="cls-4" d="m558.15,374.5c1.92-2.76,4.01-5.53,6.22-8.33l-4.34-9.38c-2.4,2.88-4.63,5.79-6.71,8.69l4.84,9.02Z"/>
    <path class="cls-4" d="m563.8,352.38c-.13.14-.23.31-.36.45l4.27,9.28c1.01-1.18,2.01-2.34,3.04-3.5,1.46-1.63,2.88-3.13,4.33-4.65l-4.1-9.04c-2.37,2.31-4.77,4.76-7.19,7.46Z"/>
    <path class="cls-4" d="m586.8,342.96l-3.07-9.18c-2.98,2.23-6.01,4.81-9.11,7.66l4.07,8.93c2.73-2.67,5.45-5.18,8.11-7.4Z"/>
    <path class="cls-4" d="m597.91,324.82c-3.51,1.79-6.9,3.82-10.14,6.05l3.02,8.96c3.23-2.51,6.61-4.82,10.12-6.93l-2.99-8.09Z"/>
    <path class="cls-4" d="m646.07,330.96c-1.69-.94-3.47-1.69-5.32-2.25-4.44-1.23-9.1-1.51-13.65-.79l.93.53c1.14.6,1.59,2.01.99,3.15-.01.03-.03.05-.04.08-.62,1.15-2.05,1.58-3.2.96-.01,0-.02-.01-.03-.02l-5.75-3.14c-3.79,1.19-7.47,2.7-10.99,4.52l4.19,2.22c1.15.64,1.57,2.09.93,3.25-.62,1.12-2.02,1.55-3.17.97l-6.88-3.69c-3.4,2.04-6.69,4.26-9.86,6.64l5.53,2.73c1.2.54,1.74,1.94,1.2,3.14-.54,1.2-1.94,1.74-3.14,1.2-.05-.02-.09-.04-.14-.07l-7.61-3.74c-2.75,2.27-5.43,4.64-7.95,7.08l5.69,2.92c1.19.56,1.71,1.97,1.15,3.17-.56,1.19-1.97,1.71-3.17,1.15-.05-.02-.11-.05-.16-.08l-7.11-3.63c-1.47,1.5-2.87,3.02-4.2,4.51-1.19,1.33-2.26,2.62-3.36,3.9l5.85,2.8c1.18.6,1.65,2.04,1.05,3.22-.58,1.14-1.96,1.62-3.13,1.1l-6.89-3.31c-2.4,3.01-4.62,5.97-6.57,8.87l5.93,3.04c1.17.6,1.63,2.03,1.03,3.2-.6,1.17-2.03,1.63-3.2,1.03l-6.34-3.25c-2.02,3.23-3.87,6.57-5.54,10l4.7,2.37c1.18.61,1.64,2.05,1.03,3.23-.61,1.18-2.05,1.64-3.23,1.03l-4.47-2.29c-1.76,4.17-3.13,8.49-4.1,12.91l3.43,1.74c1.16.57,1.63,1.98,1.06,3.13,0,.02-.02.03-.03.05-.59,1.18-2.03,1.65-3.2,1.05l-2.04-1.06c-.85,5.57-.22,11.27,1.84,16.52.87,1.97,1.92,3.85,3.15,5.63-1.55-16.17,10.44-42,32.23-66.35,21.87-24.45,46.31-39.23,62.56-39.39Z"/>
    <path class="cls-4" d="m621.96,324.14c5.13-1.25,10.45-1.56,15.69-.92-2.3-1.64-4.87-2.88-7.58-3.67-2.94-.84-5.98-1.23-9.04-1.14l.93,5.73Z"/>
    <path class="cls-4" d="m617.35,325.38l-1.06-6.58c-4.84.71-9.57,2.05-14.06,4l2.9,7.75c3.9-2.1,7.99-3.83,12.22-5.18Z"/>
    <path class="cls-4" d="m532.47,397.2l-1.99-1.01c-1.17-.61-1.62-2.06-1.01-3.23.61-1.17,2.06-1.62,3.23-1.01l1.07.57c1.38-4.25,3.07-8.39,5.05-12.4l-2.99-1.57c-1.16-.61-1.62-2.04-1.01-3.2.61-1.16,2.04-1.62,3.2-1.01l2.99,1.57c1.8-3.2,3.78-6.46,5.96-9.71l-3.12-1.51c-1.2-.54-1.74-1.94-1.2-3.14.54-1.2,1.94-1.74,3.14-1.2.05.02.09.04.14.07l3.84,1.86c2.19-3.02,4.54-6.08,7.1-9.07l-2.92-1.55c-1.16-.61-1.62-2.04-1.01-3.2.61-1.16,2.04-1.62,3.2-1.01h0l3.91,2.05c.08-.09.15-.21.21-.28,2.52-2.82,5.01-5.36,7.48-7.79l-2.85-1.48c-1.16-.61-1.6-2.05-.99-3.21.61-1.16,2.05-1.6,3.21-.99h0l4.24,2.22c3.02-2.75,5.98-5.21,8.92-7.44l-2.42-1.1c-1.2-.53-1.74-1.93-1.21-3.13.53-1.2,1.93-1.74,3.13-1.21h0l4.98,2.2c3-2.08,6.11-3.99,9.33-5.71l-2.08-1.1c-1.16-.61-1.61-2.04-1.01-3.2.62-1.18,2.07-1.63,3.25-1.01l5.17,2.7c3.8-1.69,7.76-3.02,11.81-3.96-.84-.71-1.08-1.91-.57-2.89.62-1.16,2.06-1.6,3.23-.99l5.03,2.71c2.9-.22,5.81-.11,8.68.35-2.39-1.8-5.1-3.16-7.98-3.99-14.11-4.19-38.91,2.25-66.27,32.83-22.91,25.61-33.06,52.66-25.85,68.95,1.26,2.7,2.87,5.23,4.78,7.52-1.84-7.31-1.77-14.98.23-22.25Z"/>
    <path class="cls-4" d="m641.14,359.32c-2.11-1.88-6.77-1.29-12.86,1.66-1.12.53-2.27,1.16-3.43,1.83-1.12,4.41-2.61,8.72-4.48,12.86-3.11,6.11-7.02,11.78-11.63,16.86-4.89,5.61-10.61,10.43-16.95,14.32-3.49,1.92-7.11,3.59-10.83,5.01-.56,1.25-1.03,2.49-1.46,3.68-2.26,6.33-2.33,11.04-.23,12.92,5.04,4.51,23.38-4.65,41.61-25.02,18.23-20.38,25.3-39.61,20.26-44.12Z"/>
    <path class="cls-4" d="m605.19,389.36c4.33-4.75,7.99-10.05,10.88-15.78,1.04-2.18,1.91-4.43,2.62-6.73-6.97,5.16-13.38,11.03-19.13,17.52-5.81,6.42-10.93,13.44-15.28,20.93,1.74-.76,3.45-1.61,5.1-2.55,5.92-3.63,11.25-8.14,15.81-13.38Z"/>
  </g>
  <g id="iocon-ball">
    <g>
      <path class="cls-4" d="m295.32,61.96c-8.11-30.26-35.16-51.4-65.8-51.4-5.75,0-11.51.76-17.11,2.26-17.4,4.66-31.89,15.98-40.81,31.86-8.9,15.86-11.19,34.38-6.43,52.15,8.11,30.26,35.17,51.4,65.8,51.4,5.75,0,11.51-.77,17.11-2.26,35.88-9.61,57.07-47.3,47.23-84.01Zm-6.75,34.93c-4.09,3.75-9.31,7.21-16.6,9.89l-21.24-19.52,1.27-24.21,24.04-13.28c5.43,2.77,9,7.05,12.02,11.8.22.71.48,1.41.67,2.14,3.03,11.31,2.73,22.7-.17,33.17Zm-56.92-79.44c13.4.48,25.94,5.44,36.01,13.65,2.78,4.71,4.71,9.22,4.89,14.77l-23.32,12.88-22.67-8.71-8.44-25.76c3.17-2.93,7.75-6.03,13.52-6.83Zm-32.59,8.38c4.95-.54,9.52.11,14.54,1.03l8.03,24.52-15.14,18.7-26.68-.61c-2.58-3.23-4.07-8.2-5.69-14.21,1-2.47,2.09-4.9,3.41-7.25,5.25-9.35,12.67-16.89,21.52-22.18Zm-27.02,70.16c1.29-4.83,2.25-15.68,6.97-21.14l27.21.63,13.11,20.19-10.06,26.72c-7.76,1.54-15.87.88-22.46-.3-6.77-7.2-11.91-16.08-14.77-26.11Zm74.29,43.4c-5.03,1.35-10.19,2.03-15.35,2.03-.26,0-.52-.03-.78-.03,0-.15.02-.28.01-.44-7.07-4.73-12.19-10.4-16.23-16.59l10.12-26.87,23.41-6.27,21.55,19.81c-.64,7.16-2.71,13.93-5.41,20.53-5.19,3.44-10.99,6.14-17.31,7.83Z"/>
      <path class="cls-4" d="m62.68,95.64c.29,0,.59-.04.88-.12l90.47-24.24c1.81-.49,2.89-2.35,2.41-4.17-.48-1.81-2.35-2.89-4.17-2.4l-90.47,24.24c-1.81.49-2.89,2.35-2.41,4.17.4,1.52,1.78,2.52,3.28,2.52Z"/>
      <path class="cls-4" d="m137.7,104.22c-.34-1.26-1.63-2.01-2.9-1.67l-82.04,21.98c-1.26.34-2.01,1.64-1.67,2.9.28,1.06,1.24,1.75,2.28,1.75.2,0,.41-.03.62-.08l82.05-21.98c1.26-.34,2.01-1.64,1.67-2.9Z"/>
      <path class="cls-4" d="m169.29,128.19l-67.63,18.12c-1.81.49-2.89,2.35-2.41,4.17.4,1.52,1.78,2.52,3.28,2.52.29,0,.59-.04.88-.12l67.63-18.12c1.81-.49,2.89-2.35,2.41-4.17s-2.35-2.9-4.17-2.41Z"/>
    </g>
  </g>
</svg>