<?xml version="1.0" ?><svg data-name="Capa 1" id="Capa_1" viewBox="0 0 20 19.84" xmlns="http://www.w3.org/2000/svg"><path d="M13.09,1.77H6.57A1.94,1.94,0,0,0,4.63,3.71V15.93a1.94,1.94,0,0,0,1.94,1.94h6.52A1.94,1.94,0,0,0,15,15.93V3.71A1.94,1.94,0,0,0,13.09,1.77Zm1.1,14.16a1.1,1.1,0,0,1-1.1,1.1H6.57a1.1,1.1,0,0,1-1.1-1.1V3.71a1.1,1.1,0,0,1,1.1-1.1H7.3a.64.64,0,0,0,.63.61h3.81a.64.64,0,0,0,.62-.61h.73a1.1,1.1,0,0,1,1.1,1.1Z"/><path d="M11,15.6H8.71a.42.42,0,0,0-.42.42.42.42,0,0,0,.42.42H11a.42.42,0,0,0,.42-.42A.42.42,0,0,0,11,15.6Z"/><path d="M9.75,12.28V9.59a.34.34,0,0,0-.17-.31l-1.9-1a.34.34,0,0,0-.51.3v2.7a.35.35,0,0,0,.18.3l1.89,1A.34.34,0,0,0,9.75,12.28Z"/><path d="M12,8.22l-1.89,1a.34.34,0,0,0-.18.3v2.69a.34.34,0,0,0,.51.3l1.9-1a.35.35,0,0,0,.18-.3V8.53A.35.35,0,0,0,12,8.22Z"/><path d="M7.8,8.09l1.87,1a.34.34,0,0,0,.34,0l1.86-1a.34.34,0,0,0,0-.6L10,6.45a.33.33,0,0,0-.33,0l-1.87,1A.35.35,0,0,0,7.8,8.09Z"/></svg>